<svg height="56.212" viewbox="0 0 38.05 56.212" width="38.05" xmlns="http://www.w3.org/2000/svg"> <g data-name="metabolism blend" id="metabolism_blend" transform="translate(-559.9 -464.553)"> <path d="M899.941,221.268a12.636,12.636,0,0,0-.065-1.278c-.6-4.021-3-6.642-6.527-8.391a.556.556,0,0,0-.757.088c-.215.27-.071.508.107.75a8.621,8.621,0,0,1,1.612,4.064,10.8,10.8,0,0,1-2.45,8.05,22.829,22.829,0,0,1-3.262,3.185,74.232,74.232,0,0,0-7.781,8.386,18.168,18.168,0,0,0-3.519,6.462,18.711,18.711,0,0,0,.133,11.221,18.425,18.425,0,0,0,28.515,9.033,18.446,18.446,0,0,0,6.809-19.394,18.53,18.53,0,0,0-3.357-6.776,18.1,18.1,0,0,0-6.106-5.006.689.689,0,0,0-.612.019.748.748,0,0,0-.144.593c.05.37.184.729.271,1.095a12.5,12.5,0,0,1,.361,5.012,3.162,3.162,0,0,1-1.176,2.141,3.84,3.84,0,0,1-6.12-2.762,12.4,12.4,0,0,1,.445-4.9,42.073,42.073,0,0,1,2.369-5.922A14.366,14.366,0,0,0,899.941,221.268Z" data-name="Path 416" fill="none" id="Path_416" stroke="#006e5a" stroke-linecap="round" stroke-miterlimit="10" stroke-width="1.2" transform="translate(-316.004 253.672)"></path> </g> </svg>